<?xml version="1.0" encoding="utf-8"?>
<svg viewBox="150 200 600 300" xmlns="http://www.w3.org/2000/svg">
  <path d="M 484.129 362.236 C 480.489 362.236 477.295 361.41 474.55 359.757 C 471.816 358.091 469.696 355.844 468.19 353.018 C 466.671 350.193 465.911 347.073 465.911 343.66 C 465.911 340.207 466.631 337.075 468.07 334.262 C 469.51 331.462 471.576 329.229 474.27 327.563 C 476.961 325.909 480.129 325.084 483.769 325.084 C 487.46 325.084 490.64 325.909 493.308 327.563 C 495.973 329.229 498.027 331.462 499.467 334.262 C 500.907 337.075 501.627 340.207 501.627 343.66 L 501.627 345.82 L 471.47 345.82 C 471.75 347.925 472.43 349.859 473.51 351.618 C 474.59 353.364 476.041 354.758 477.869 355.798 C 479.695 356.823 481.809 357.337 484.209 357.337 C 486.754 357.337 488.888 356.771 490.608 355.638 C 492.34 354.518 493.688 353.072 494.647 351.298 L 500.547 351.298 C 499.293 354.512 497.313 357.137 494.607 359.177 C 491.9 361.216 488.408 362.236 484.129 362.236 Z M 471.53 340.781 L 496.007 340.781 C 495.527 337.715 494.233 335.148 492.128 333.082 C 490.008 331.016 487.22 329.983 483.769 329.983 C 480.315 329.983 477.541 331.016 475.45 333.082 C 473.37 335.148 472.062 337.715 471.53 340.781 Z" style="white-space: pre; stroke-width: 2px; stroke-miterlimit: 25; stroke: rgb(12, 132, 244); fill: rgb(12, 132, 244); transform-origin: 483.769px 343.66px;" transform="matrix(1, 0, 0, 1, 1e-12, 0)">
    <title>E</title>
    <animateTransform type="translate" additive="sum" attributeName="transform" values="0 0;125 0" begin="1s" dur="0.5s" fill="freeze" keyTimes="0; 1" calcMode="spline" keySplines="0.5 1 0.89 1"/>
    <animate attributeName="opacity" values="0;1" begin="0s" dur="0.1s" fill="freeze" keyTimes="0; 1" calcMode="spline" keySplines="0.5 1 0.89 1"/>
    <animateTransform type="scale" additive="sum" attributeName="transform" values="0 0;1 1" dur="0.1s" fill="freeze" keyTimes="0; 1"/>
  </path>
  <path d="M 542.922 333.725 C 537.975 299.807 505.923 279.421 472.373 286.386 C 469.891 287.12 469.304 289.124 469.631 291.857 C 470.111 294.369 471.867 295.715 474.552 295.118 C 503.042 288.972 530.04 306.901 534.19 335.901 C 534.514 337.054 535.313 339.055 538.76 338.604 C 541.442 337.975 543.264 336.437 542.922 333.725 Z" style="stroke: rgb(12, 132, 244); fill: rgb(12, 132, 244); transform-origin: 506.424px 312.323px;" transform="matrix(0.999848008156, 0.017452003434, -0.017452003434, 0.999848008156, 3.8548e-8, -9.901e-8)">
    <title>wave2</title>
    <animate attributeName="fill-opacity" values="0;1" begin="0.5s" dur="0.5s" fill="freeze" keyTimes="0; 1" calcMode="spline" keySplines="0.5 1 0.89 1"/>
    <animate attributeName="stroke-opacity" values="0;1" begin="0.5s" dur="0.5s" fill="freeze" keyTimes="0; 1" calcMode="spline" keySplines="0.5 1 0.89 1"/>
    <animateTransform type="translate" additive="sum" attributeName="transform" values="-10 11;0 0" begin="0.5s" dur="0.5s" fill="freeze" keyTimes="0; 1" calcMode="spline" keySplines="0.5 1 0.89 1"/>
    <animateTransform type="scale" additive="sum" attributeName="transform" values="0.5 0.5;1 1" begin="0.5s" dur="0.5s" fill="freeze" keyTimes="0; 1" calcMode="spline" keySplines="0.5 1 0.89 1"/>
    <animate attributeName="visibility" values="hidden;visible;visible" dur="3.93s" fill="freeze" calcMode="discrete" keyTimes="0; 0.12723; 0.98528"/>
    <animateTransform type="translate" additive="sum" attributeName="transform" values="0 0;125 0" begin="1s" dur="0.5s" fill="freeze" keyTimes="0; 1" calcMode="spline" keySplines="0.5 1 0.89 1"/>
  </path>
  <path d="M 477.269 305.557 C 474.781 306.293 474.494 308.424 474.82 311.157 C 475.299 313.67 476.763 314.887 479.446 314.29 C 494.542 311.198 511.568 324.675 513.628 339.78 C 513.953 340.932 515.313 343.108 518.73 342.548 C 521.395 341.938 522.686 340.337 522.36 337.603 C 519.486 317.573 497.037 301.382 477.269 305.557 Z" style="stroke: rgb(12, 132, 244); fill: rgb(12, 132, 244); transform-origin: 496.633px 322.454px;" transform="matrix(0.999848008156, 0.017452003434, -0.017452003434, 0.999848008156, -4.90328e-7, 1.11553e-7)">
    <title>wave1</title>
    <animate attributeName="fill-opacity" values="0;1" dur="0.5s" fill="freeze" keyTimes="0; 1" calcMode="spline" keySplines="0.25 1 0.5 1"/>
    <animate attributeName="stroke-opacity" values="0;1" dur="0.5s" fill="freeze" keyTimes="0; 1" calcMode="spline" keySplines="0.5 1 0.89 1"/>
    <animateTransform type="translate" additive="sum" attributeName="transform" values="-11 15;0 0" dur="0.5s" fill="freeze" keyTimes="0; 1" calcMode="spline" keySplines="0.5 1 0.89 1"/>
    <animateTransform type="scale" additive="sum" attributeName="transform" values="0.5 0.5;1 1" begin="0s" dur="0.5s" fill="freeze" keyTimes="0; 1"/>
    <animateTransform type="translate" additive="sum" attributeName="transform" values="0 0;125 0" begin="1s" dur="0.5s" fill="freeze" keyTimes="0; 1" calcMode="spline" keySplines="0.5 1 0.89 1"/>
  </path>
  <path style="stroke: rgb(12, 132, 244); fill: rgb(12, 132, 244); transform-origin: 483.681px 336.044px;" d="M 474.537 327.476 L 495.863 330.197 L 501.539 344.22 L 483.123 344.422 L 465.823 344.612 L 474.537 327.476 Z">
    <title>e-top-cover</title>
    <animate attributeName="opacity" values="0;1" dur="0.1s" fill="freeze" calcMode="spline" keyTimes="0; 1" keySplines="0.5 1 0.89 1"/>
    <animateTransform type="translate" additive="sum" attributeName="transform" values="0 0;125 0" begin="1s" dur="0.5s" fill="freeze" keyTimes="0; 1" calcMode="spline" keySplines="0.5 1 0.89 1"/>
    <animate attributeName="d" values="M 474.537 327.476 L 495.863 330.197 L 501.539 344.22 L 483.123 344.422 L 465.823 344.612 L 474.537 327.476 Z;M 474.537 327.476 L 495.863 330.197 L 501.539 344.22 L 483.123 344.422 L 483.21 325.084 L 474.537 327.476 Z" begin="2s" dur="0.1s" fill="freeze" keyTimes="0; 1"/>
    <animate attributeName="d" values="M 483.383 326.084 L 495.863 330.197 L 501.539 344.22 L 483.123 344.422 L 483.21 343.27 L 483.383 326.084 Z;M 498.332 340.081 L 495.863 330.197 L 501.539 344.22 L 483.123 344.422 L 483.027 343.654 L 498.332 340.081 Z" begin="2.1s" dur="0.1s" fill="freeze" keyTimes="0; 1"/>
    <animateTransform type="scale" additive="sum" attributeName="transform" values="0 0;1 1" dur="0.1s" fill="freeze" keyTimes="0; 1"/>
  </path>
  <path style="stroke: rgb(255, 255, 255); fill: rgb(255, 255, 255);" d="M 503.732 347.22 L 483.961 347.354 L 464.823 347.13 C 465.911 373.343 505.105 371.797 503.732 347.22 Z" transform="matrix(0.9999999999999999, 0, 0, 0.9999999999999999, 2.842170943040401e-14, 0)">
    <title>e-bottom</title>
    <animateTransform type="translate" additive="sum" attributeName="transform" values="0 0; 0 0" begin="1.16s" dur="0.5s" fill="freeze"/>
    <animateTransform type="translate" additive="sum" attributeName="transform" values="0 0;125 0" begin="1s" dur="0.5s" fill="freeze" keyTimes="0; 1" calcMode="spline" keySplines="0.5 1 0.89 1"/>
    <animate attributeName="d" values="M 503.732 347.22 L 483.961 347.354 L 464.823 347.13 C 465.911 373.343 505.105 371.797 503.732 347.22 Z;M 503.732 347.22 L 483.961 347.354 L 484.695 368.399 C 485.783 394.612 505.105 371.797 503.732 347.22 Z" begin="2.2s" dur="0.2s" fill="freeze" keyTimes="0; 1"/>
    <animate attributeName="d" values="M 503.732 347.22 L 483.961 347.354 L 484.588 368.614 C 485.676 394.827 505.105 371.797 503.732 347.22 Z;M 503.732 347.22 L 483.961 347.354 L 510.368 347.237 C 511.456 373.45 505.105 371.797 503.732 347.22 Z" begin="2.4s" dur="0.2s" fill="freeze" keyTimes="0; 1"/>
  </path>
  <path d="M 332.662 362.236 L 301.286 362.236 L 301.286 314.586 L 306.685 314.586 L 306.685 357.057 L 332.662 357.057 L 332.662 362.236 Z" style="white-space: pre; stroke-width: 2px; stroke-miterlimit: 25; stroke: rgb(12, 132, 244); fill: rgb(12, 132, 244);" transform="matrix(0.9999999999999999, 0, 0, 0.9999999999999999, 2.842170943040401e-14, 0)">
    <title>L</title>
    <animateTransform type="translate" additive="sum" attributeName="transform" values="800 0;0 0" begin="1s" dur="1s" fill="freeze" end="2s" keyTimes="0; 1" calcMode="spline" keySplines="0.5 1 0.89 1"/>
    <animate attributeName="visibility" values="hidden;visible" dur="3.64s" fill="freeze" calcMode="discrete" keyTimes="0; 0.39011"/>
  </path>
  <path d="M 435.579 376.493 C 431.073 376.493 427.408 375.52 424.58 373.574 C 421.74 371.628 419.821 369.095 418.821 365.976 L 424.78 365.976 C 425.5 367.749 426.754 369.129 428.54 370.115 C 430.314 371.101 432.567 371.594 435.299 371.594 C 439.433 371.594 442.446 370.621 444.338 368.675 C 446.232 366.729 447.178 363.91 447.178 360.217 L 447.178 355.258 C 445.832 357.177 444.092 358.723 441.958 359.897 C 439.826 361.071 437.273 361.656 434.299 361.656 C 430.793 361.656 427.734 360.851 425.12 359.237 C 422.494 357.637 420.461 355.444 419.021 352.658 C 417.581 349.873 416.861 346.779 416.861 343.38 C 416.861 339.915 417.581 336.801 419.021 334.042 C 420.461 331.282 422.494 329.103 425.12 327.503 C 427.734 325.889 430.793 325.084 434.299 325.084 C 437.273 325.084 439.826 325.649 441.958 326.783 C 444.092 327.903 445.832 329.449 447.178 331.422 L 447.178 325.663 L 452.577 325.663 L 452.577 360.577 C 452.577 365.71 451.105 369.641 448.158 372.374 C 445.198 375.12 441.006 376.493 435.579 376.493 Z M 435.019 356.757 C 437.659 356.757 439.898 356.157 441.738 354.958 C 443.592 353.758 445.012 352.138 445.998 350.099 C 446.972 348.059 447.458 345.82 447.458 343.38 C 447.458 340.874 446.972 338.615 445.998 336.601 C 445.012 334.588 443.592 332.982 441.738 331.782 C 439.898 330.583 437.659 329.983 435.019 329.983 C 432.379 329.983 430.1 330.583 428.18 331.782 C 426.26 332.982 424.794 334.588 423.78 336.601 C 422.768 338.615 422.26 340.874 422.26 343.38 C 422.26 345.82 422.768 348.059 423.78 350.099 C 424.794 352.138 426.26 353.758 428.18 354.958 C 430.1 356.157 432.379 356.757 435.019 356.757 Z" style="white-space: pre; stroke-width: 2px; stroke-miterlimit: 25; stroke: rgb(12, 132, 244); fill: rgb(12, 132, 244);" transform="matrix(0.9999999999999999, 0, 0, 0.9999999999999999, 2.842170943040401e-14, 0)">
    <title>g</title>
    <animate attributeName="visibility" values="hidden;visible" dur="2s" fill="freeze" calcMode="discrete" keyTimes="0; 0.78"/>
    <animateTransform type="translate" additive="sum" attributeName="transform" values="800 0;0 0" begin="1s" dur="1s" fill="freeze" end="2s" keyTimes="0; 1" calcMode="spline" keySplines="0.5 1 0.89 1"/>
  </path>
  <path d="M 382.778 361.656 L 377.378 361.656 L 377.378 325.663 L 382.778 325.663 L 382.778 331.282 C 384.072 329.549 385.657 328.083 387.537 326.883 C 389.405 325.683 391.805 325.084 394.736 325.084 C 397.23 325.084 399.57 325.669 401.756 326.843 C 403.929 328.029 405.703 329.783 407.075 332.102 C 408.449 334.436 409.135 337.301 409.135 340.701 L 409.135 361.656 L 403.735 361.656 L 403.735 340.86 C 403.735 337.595 402.796 334.962 400.916 332.962 C 399.05 330.976 396.63 329.983 393.657 329.983 C 391.631 329.983 389.805 330.437 388.177 331.342 C 386.551 332.262 385.245 333.548 384.258 335.202 C 383.272 336.855 382.778 338.761 382.778 340.92 L 382.778 361.656 Z" style="white-space: pre; stroke-width: 2px; stroke-miterlimit: 25; stroke: rgb(12, 132, 244); fill: rgb(12, 132, 244);" transform="matrix(0.9999999999999999, 0, 0, 0.9999999999999999, 2.842170943040401e-14, 0)">
    <title>n</title>
    <animate attributeName="visibility" values="hidden;visible" dur="2s" fill="freeze" calcMode="discrete" keyTimes="0; 0.755"/>
    <animateTransform type="translate" additive="sum" attributeName="transform" values="800 0;0 0" begin="1s" dur="1s" fill="freeze" end="2s" keyTimes="0; 1" calcMode="spline" keySplines="0.5 1 0.89 1"/>
  </path>
  <path d="M 572.407 362.077 L 566.088 362.077 L 551.97 326.084 L 557.869 326.084 L 569.248 356.319 L 580.547 326.084 L 586.446 326.084 L 572.407 362.077 Z" style="white-space: pre; stroke-width: 2px; stroke-miterlimit: 25; stroke: rgb(12, 132, 244); fill: rgb(12, 132, 244);" transform="matrix(0.9999999999999999, 0, 0, 0.9999999999999999, 2.842170943040401e-14, 0)">
    <title>v</title>
    <animate attributeName="visibility" values="hidden;visible" dur="2s" fill="freeze" calcMode="discrete" keyTimes="0; 0.92"/>
    <animateTransform type="translate" additive="sum" attributeName="transform" values="800 0;0 0" begin="1s" dur="1s" fill="freeze" end="2s" keyTimes="0; 1" calcMode="spline" keySplines="0.5 1 0.89 1"/>
  </path>
  <path d="M 530.128 362.236 C 526.621 362.236 523.561 361.41 520.949 359.757 C 518.322 358.091 516.29 355.844 514.85 353.018 C 513.41 350.193 512.69 347.073 512.69 343.66 C 512.69 340.207 513.41 337.075 514.85 334.262 C 516.29 331.462 518.322 329.229 520.949 327.563 C 523.561 325.909 526.621 325.084 530.128 325.084 C 533.1 325.084 535.654 325.663 537.787 326.823 C 539.919 327.969 541.659 329.529 543.007 331.502 L 543.007 325.663 L 548.406 325.663 L 548.406 361.656 L 543.007 361.656 L 543.007 355.898 C 541.659 357.817 539.919 359.351 537.787 360.497 C 535.654 361.656 533.1 362.236 530.128 362.236 Z M 530.848 357.337 C 533.528 357.337 535.794 356.711 537.647 355.458 C 539.487 354.218 540.887 352.552 541.847 350.459 C 542.807 348.379 543.287 346.113 543.287 343.66 C 543.287 341.166 542.807 338.887 541.847 336.821 C 540.887 334.756 539.487 333.102 537.647 331.862 C 535.794 330.608 533.528 329.983 530.848 329.983 C 528.209 329.983 525.929 330.608 524.009 331.862 C 522.089 333.102 520.621 334.756 519.61 336.821 C 518.596 338.887 518.09 341.166 518.09 343.66 C 518.09 346.113 518.596 348.379 519.61 350.459 C 520.621 352.552 522.089 354.218 524.009 355.458 C 525.929 356.711 528.209 357.337 530.848 357.337 Z" style="white-space: pre; stroke-width: 2px; stroke-miterlimit: 25; stroke: rgb(12, 132, 244); fill: rgb(12, 132, 244);" transform="matrix(0.9999999999999999, 0, 0, 0.9999999999999999, 2.842170943040401e-14, 0)">
    <title>a</title>
    <animate attributeName="visibility" values="hidden;visible" dur="2s" fill="freeze" calcMode="discrete" keyTimes="0; 0.865"/>
    <animateTransform type="translate" additive="sum" attributeName="transform" values="800 0;0 0" begin="1s" dur="1s" fill="freeze" end="2s" keyTimes="0; 1" calcMode="spline" keySplines="0.5 1 0.89 1"/>
  </path>
  <path d="M 474.194 362.236 L 467.994 362.236 L 456.695 326.243 L 462.455 326.243 L 471.094 355.538 L 480.233 326.243 L 486.132 326.243 L 495.291 355.538 L 503.93 326.243 L 509.69 326.243 L 498.371 362.236 L 492.191 362.236 L 483.192 333.522 L 474.194 362.236 Z" style="white-space: pre; stroke-width: 2px; stroke-miterlimit: 25; stroke: rgb(12, 132, 244); fill: rgb(12, 132, 244);" transform="matrix(0.9999999999999999, 0, 0, 0.9999999999999999, 2.842170943040401e-14, 0)">
    <title>w</title>
    <animate attributeName="visibility" values="hidden;visible" dur="2s" fill="freeze" calcMode="discrete" keyTimes="0; 0.82"/>
    <animateTransform type="translate" additive="sum" attributeName="transform" values="800 0;0 0" begin="1s" dur="1s" fill="freeze" end="2s" keyTimes="0; 1" calcMode="spline" keySplines="0.5 1 0.89 1"/>
  </path>
  <path d="M 352.52 362.236 C 348.881 362.236 345.713 361.41 343.021 359.757 C 340.328 358.091 338.262 355.844 336.822 353.018 C 335.382 350.193 334.662 347.073 334.662 343.66 C 334.662 340.207 335.382 337.075 336.822 334.262 C 338.262 331.462 340.328 329.229 343.021 327.563 C 345.713 325.909 348.881 325.084 352.52 325.084 C 356.212 325.084 359.391 325.909 362.059 327.563 C 364.725 329.229 366.779 331.462 368.218 334.262 C 369.658 337.075 370.378 340.207 370.378 343.66 C 370.378 347.073 369.658 350.193 368.218 353.018 C 366.779 355.844 364.725 358.091 362.059 359.757 C 359.391 361.41 356.212 362.236 352.52 362.236 Z M 352.52 357.337 C 355.212 357.337 357.48 356.711 359.319 355.458 C 361.171 354.218 362.579 352.552 363.539 350.459 C 364.499 348.379 364.979 346.113 364.979 343.66 C 364.979 341.166 364.499 338.887 363.539 336.821 C 362.579 334.756 361.171 333.102 359.319 331.862 C 357.48 330.608 355.212 329.983 352.52 329.983 C 349.88 329.983 347.627 330.608 345.761 331.862 C 343.881 333.102 342.461 334.756 341.501 336.821 C 340.542 338.887 340.062 341.166 340.062 343.66 C 340.062 346.113 340.542 348.379 341.501 350.459 C 342.461 352.552 343.881 354.218 345.761 355.458 C 347.627 356.711 349.88 357.337 352.52 357.337 Z" style="white-space: pre; stroke-width: 2px; stroke-miterlimit: 25; stroke: rgb(12, 132, 244); fill: rgb(12, 132, 244);" transform="matrix(0.9999999999999999, 0, 0, 0.9999999999999999, 2.842170943040401e-14, 0)">
    <title>O</title>
    <animate attributeName="visibility" values="hidden;visible" dur="2s" fill="freeze" calcMode="discrete" keyTimes="0; 0.73"/>
    <animateTransform type="translate" additive="sum" attributeName="transform" values="800 0;0 0" begin="1s" dur="1s" fill="freeze" end="2s" keyTimes="0; 1" calcMode="spline" keySplines="0.5 1 0.89 1"/>
  </path>
</svg>